    <svg xmlns="http://www.w3.org/2000/svg" version="1" viewBox="0 0 82 82">
      <g transform="translate(-252.4 4.516)">
        <path
          fill="#949096"
          stroke="#2c2c2c"
          strokeDashoffset="162"
          strokeLinecap="round"
          strokeLinejoin="round"
          strokeWidth="2"
          d="M293.4-3.516c-2.74 0-5.41.287-8 .813v6.187a33.533 33.533 0 00-9.68 4l-4.38-4.375c-2.24 1.486-4.29 3.23-6.19 5.125-1.89 1.895-3.64 3.945-5.12 6.188l4.37 4.375a33.778 33.778 0 00-4 9.687h-6.18c-.53 2.585-.82 5.261-.82 8s.29 5.415.82 8h6.18c.84 3.475 2.19 6.72 4 9.688l-4.37 4.375c1.48 2.242 3.23 4.292 5.12 6.187 1.9 1.895 3.95 3.639 6.19 5.125l4.38-4.375a33.517 33.517 0 009.68 4v6.188c2.59.525 5.26.812 8 .812s5.42-.287 8-.812v-6.188a33.576 33.576 0 009.69-4l4.38 4.375c2.24-1.486 4.29-3.23 6.18-5.125 1.9-1.895 3.64-3.945 5.13-6.187l-4.38-4.375a33.515 33.515 0 004-9.688h6.19c.53-2.585.81-5.261.81-8s-.28-5.415-.81-8h-6.19a33.498 33.498 0 00-4-9.687l4.38-4.375c-1.49-2.243-3.23-4.293-5.13-6.188-1.89-1.895-3.94-3.639-6.18-5.125l-4.38 4.375a33.593 33.593 0 00-9.69-4v-6.187a40.101 40.101 0 00-8-.813zm0 20c11.04 0 20 8.96 20 20s-8.96 20-20 20-20-8.96-20-20 8.96-20 20-20z"
        ></path>
      </g>
    </svg>